<?xml version="1.0" encoding="utf-8"?>
<!-- Generator: Adobe Illustrator 27.8.1, SVG Export Plug-In . SVG Version: 6.00 Build 0)  -->
<svg version="1.1" id="Слой_1" xmlns="http://www.w3.org/2000/svg" xmlns:xlink="http://www.w3.org/1999/xlink" x="0px" y="0px"
	 viewBox="0 0 500 500" style="enable-background:new 0 0 500 500;" xml:space="preserve">
<style type="text/css">
	.st0{fill:#FF4E4E;}
	.st1{fill:#FFFFFF;}
</style>
<path class="st0" d="M319.9,500H180.1C80.6,500,0,419.4,0,319.9V180.1C0,80.6,80.6,0,180.1,0H320c99.4,0,180,80.6,180,180.1V320
	C500,419.4,419.4,500,319.9,500z"/>
<path class="st1" d="M161.8,85.1h176.5c42.3,0,76.8,34.3,76.8,76.8v176.5c0,42.3-34.3,76.8-76.8,76.8H161.8
	c-42.3,0-76.8-34.3-76.8-76.8V161.8C85.1,119.4,119.4,85.1,161.8,85.1z"/>
<circle class="st0" cx="245.4" cy="254.6" r="110.2"/>
<circle class="st1" cx="245.9" cy="253.5" r="75.1"/>
</svg>
